<?xml version="1.0" standalone="no"?>
<!DOCTYPE svg PUBLIC "-//W3C//DTD SVG 20010904//EN"
 "http://www.w3.org/TR/2001/REC-SVG-20010904/DTD/svg10.dtd">
<svg version="1.0" xmlns="http://www.w3.org/2000/svg"
 width="225.000000pt" height="225.000000pt" viewBox="0 0 225.000000 225.000000"
 preserveAspectRatio="xMidYMid meet">

<g transform="translate(0.000000,225.000000) scale(0.100000,-0.100000)"
fill="#000000" stroke="none">
<path d="M158 1820 c-50 -15 -99 -52 -126 -94 l-27 -41 0 -486 0 -486 30 -49
c20 -31 47 -58 75 -74 l45 -25 900 0 900 0 47 28 c31 18 57 44 75 75 l28 47 0
480 0 480 -25 45 c-16 28 -43 55 -74 75 l-49 30 -886 2 c-487 1 -898 -2 -913
-7z m1787 -155 l25 -24 0 -446 0 -446 -25 -24 -24 -25 -866 0 -866 0 -24 25
-25 24 0 446 0 446 25 24 24 25 866 0 866 0 24 -25z"/>
<path d="M389 1541 c-49 -16 -69 -32 -89 -71 -18 -36 -20 -59 -20 -276 0 -221
1 -239 21 -274 35 -62 68 -74 190 -73 121 1 158 14 189 66 18 29 20 52 20 282
0 230 -2 253 -20 282 -33 55 -62 67 -169 70 -53 1 -108 -1 -122 -6z m171 -346
l0 -216 -67 3 -68 3 -3 213 -2 212 70 0 70 0 0 -215z"/>
<path d="M945 1540 c-42 -13 -85 -60 -95 -103 -4 -19 -6 -140 -5 -267 3 -254
3 -255 68 -304 24 -18 41 -20 144 -19 126 2 143 8 187 67 20 26 21 41 21 281
0 240 -1 255 -21 281 -43 58 -67 68 -172 71 -53 1 -111 -2 -127 -7z m180 -345
l0 -210 -70 0 -70 0 -3 200 c-1 110 0 205 3 213 3 9 23 12 72 10 l68 -3 0
-210z"/>
<path d="M1410 1528 c0 -34 35 -85 71 -103 25 -13 55 -16 149 -13 110 3 120 5
145 28 31 29 40 44 49 83 l6 27 -210 0 -210 0 0 -22z"/>
<path d="M1410 1195 l0 -65 121 0 c66 0 119 -3 117 -7 -2 -5 -17 -35 -34 -68
-27 -52 -64 -169 -64 -203 0 -15 132 -4 142 12 4 6 8 20 8 31 0 30 52 133 94
188 33 43 36 53 36 112 l0 65 -210 0 -210 0 0 -65z"/>
</g>
</svg>
